<svg width="332" height="129" viewBox="0 0 332 129" fill="none" xmlns="http://www.w3.org/2000/svg">
<g>
<path d="M51.1379 86.6051C45.2421 86.6051 40.6496 85.1156 37.3604 82.1367C34.0712 79.0957 32.4266 74.5964 32.4266 68.6385V24.6996H46.9488V68.4524C46.9488 70.5624 47.5073 72.207 48.6244 73.3862C49.7415 74.5033 51.262 75.0618 53.1859 75.0618C55.4821 75.0618 57.437 74.4412 59.0506 73.2L62.9604 83.44C61.471 84.495 59.6712 85.3018 57.5611 85.8604C55.5131 86.3568 53.372 86.6051 51.1379 86.6051ZM24.7 48.0654V36.8945H59.423V48.0654H24.7ZM93.3982 86.6051C88.061 86.6051 83.3134 85.488 79.1553 83.2538C75.0593 81.0196 71.8011 77.9787 69.3808 74.1309C67.0225 70.2211 65.8433 65.7837 65.8433 60.8189C65.8433 55.792 67.0225 51.3547 69.3808 47.5069C71.8011 43.5971 75.0593 40.5561 79.1553 38.384C83.3134 36.1498 88.061 35.0327 93.3982 35.0327C98.6734 35.0327 103.39 36.1498 107.548 38.384C111.706 40.5561 114.964 43.566 117.323 47.4138C119.681 51.2616 120.86 55.7299 120.86 60.8189C120.86 65.7837 119.681 70.2211 117.323 74.1309C114.964 77.9787 111.706 81.0196 107.548 83.2538C103.39 85.488 98.6734 86.6051 93.3982 86.6051ZM93.3982 74.6894C95.8186 74.6894 97.9907 74.1309 99.9146 73.0138C101.838 71.8967 103.359 70.3142 104.476 68.2662C105.593 66.1561 106.152 63.6737 106.152 60.8189C106.152 57.902 105.593 55.4196 104.476 53.3716C103.359 51.3236 101.838 49.7411 99.9146 48.624C97.9907 47.5069 95.8186 46.9484 93.3982 46.9484C90.9779 46.9484 88.8057 47.5069 86.8819 48.624C84.958 49.7411 83.4065 51.3236 82.2273 53.3716C81.1102 55.4196 80.5517 57.902 80.5517 60.8189C80.5517 63.6737 81.1102 66.1561 82.2273 68.2662C83.4065 70.3142 84.958 71.8967 86.8819 73.0138C88.8057 74.1309 90.9779 74.6894 93.3982 74.6894ZM160.17 86.6051C155.95 86.6051 152.257 85.6742 149.092 83.8124C145.927 81.9505 143.445 79.1268 141.645 75.3411C139.907 71.4933 139.038 66.6526 139.038 60.8189C139.038 54.9231 139.876 50.0824 141.552 46.2967C143.227 42.511 145.648 39.6873 148.813 37.8254C151.978 35.9636 155.764 35.0327 160.17 35.0327C164.886 35.0327 169.107 36.1188 172.83 38.2909C176.616 40.401 179.595 43.3799 181.767 47.2276C184.001 51.0754 185.118 55.6058 185.118 60.8189C185.118 66.094 184.001 70.6555 181.767 74.5033C179.595 78.351 176.616 81.3299 172.83 83.44C169.107 85.55 164.886 86.6051 160.17 86.6051ZM130.567 103.92V35.7774H144.438V46.0174L144.158 60.912L145.089 75.7134V103.92H130.567ZM157.656 74.6894C160.077 74.6894 162.218 74.1309 164.08 73.0138C166.004 71.8967 167.524 70.3142 168.641 68.2662C169.82 66.1561 170.41 63.6737 170.41 60.8189C170.41 57.902 169.82 55.4196 168.641 53.3716C167.524 51.3236 166.004 49.7411 164.08 48.624C162.218 47.5069 160.077 46.9484 157.656 46.9484C155.236 46.9484 153.064 47.5069 151.14 48.624C149.216 49.7411 147.696 51.3236 146.579 53.3716C145.462 55.4196 144.903 57.902 144.903 60.8189C144.903 63.6737 145.462 66.1561 146.579 68.2662C147.696 70.3142 149.216 71.8967 151.14 73.0138C153.064 74.1309 155.236 74.6894 157.656 74.6894ZM218.671 86.6051C213.334 86.6051 208.586 85.488 204.428 83.2538C200.332 81.0196 197.074 77.9787 194.653 74.1309C192.295 70.2211 191.116 65.7837 191.116 60.8189C191.116 55.792 192.295 51.3547 194.653 47.5069C197.074 43.5971 200.332 40.5561 204.428 38.384C208.586 36.1498 213.334 35.0327 218.671 35.0327C223.946 35.0327 228.663 36.1498 232.821 38.384C236.979 40.5561 240.237 43.566 242.595 47.4138C244.954 51.2616 246.133 55.7299 246.133 60.8189C246.133 65.7837 244.954 70.2211 242.595 74.1309C240.237 77.9787 236.979 81.0196 232.821 83.2538C228.663 85.488 223.946 86.6051 218.671 86.6051ZM218.671 74.6894C221.091 74.6894 223.263 74.1309 225.187 73.0138C227.111 71.8967 228.632 70.3142 229.749 68.2662C230.866 66.1561 231.424 63.6737 231.424 60.8189C231.424 57.902 230.866 55.4196 229.749 53.3716C228.632 51.3236 227.111 49.7411 225.187 48.624C223.263 47.5069 221.091 46.9484 218.671 46.9484C216.251 46.9484 214.078 47.5069 212.155 48.624C210.231 49.7411 208.679 51.3236 207.5 53.3716C206.383 55.4196 205.824 57.902 205.824 60.8189C205.824 63.6737 206.383 66.1561 207.5 68.2662C208.679 70.3142 210.231 71.8967 212.155 73.0138C214.078 74.1309 216.251 74.6894 218.671 74.6894ZM279.671 86.6051C274.334 86.6051 269.586 85.488 265.428 83.2538C261.332 81.0196 258.074 77.9787 255.653 74.1309C253.295 70.2211 252.116 65.7837 252.116 60.8189C252.116 55.792 253.295 51.3547 255.653 47.5069C258.074 43.5971 261.332 40.5561 265.428 38.384C269.586 36.1498 274.334 35.0327 279.671 35.0327C284.946 35.0327 289.663 36.1498 293.821 38.384C297.979 40.5561 301.237 43.566 303.595 47.4138C305.954 51.2616 307.133 55.7299 307.133 60.8189C307.133 65.7837 305.954 70.2211 303.595 74.1309C301.237 77.9787 297.979 81.0196 293.821 83.2538C289.663 85.488 284.946 86.6051 279.671 86.6051ZM279.671 74.6894C282.091 74.6894 284.263 74.1309 286.187 73.0138C288.111 71.8967 289.632 70.3142 290.749 68.2662C291.866 66.1561 292.424 63.6737 292.424 60.8189C292.424 57.902 291.866 55.4196 290.749 53.3716C289.632 51.3236 288.111 49.7411 286.187 48.624C284.263 47.5069 282.091 46.9484 279.671 46.9484C277.251 46.9484 275.078 47.5069 273.155 48.624C271.231 49.7411 269.679 51.3236 268.5 53.3716C267.383 55.4196 266.824 57.902 266.824 60.8189C266.824 63.6737 267.383 66.1561 268.5 68.2662C269.679 70.3142 271.231 71.8967 273.155 73.0138C275.078 74.1309 277.251 74.6894 279.671 74.6894Z" fill="url(#paint0_linear_241_1394)"/>
</g>
<defs>
<filter id="filter0_f_241_1394" x="7.24792e-05" y="-0.000782013" width="331.833" height="128.621" filterUnits="userSpaceOnUse" color-interpolation-filters="sRGB">
<feFlood flood-opacity="0" result="BackgroundImageFix"/>
<feBlend mode="normal" in="SourceGraphic" in2="BackgroundImageFix" result="shape"/>
<feGaussianBlur stdDeviation="12.35" result="effect1_foregroundBlur_241_1394"/>
</filter>
<linearGradient id="paint0_linear_241_1394" x1="57.9553" y1="7.86034" x2="250.955" y2="79.3603" gradientUnits="userSpaceOnUse">
<stop/>
<stop offset="1" stop-color="#717171"/>
</linearGradient>
</defs>
</svg>
